<svg xmlns="http://www.w3.org/2000/svg" version="1.1" xmlns:xlink="http://www.w3.org/1999/xlink" xmlns:svgjs="http://svgjs.dev/svgjs" width="1000" height="1000" viewBox="0 0 1000 1000"><rect width="1000" height="1000" fill="#ffffff"></rect><g transform="matrix(0.7,0,0,0.7,149.57577588961936,315.1964298595544)"><svg viewBox="0 0 396 209" data-background-color="#ffffff" preserveAspectRatio="xMidYMid meet" height="527" width="1000" xmlns="http://www.w3.org/2000/svg" xmlns:xlink="http://www.w3.org/1999/xlink"><g id="tight-bounds" transform="matrix(1,0,0,1,0.2399896665669985,0.20031488032836364)"><svg viewBox="0 0 395.52 208.59937023934327" height="208.59937023934327" width="395.52"><g><svg viewBox="0 0 395.52 208.59937023934327" height="208.59937023934327" width="395.52"><g transform="matrix(1,0,0,1,0,126.5703347420796)"><svg viewBox="0 0 395.52 82.02903549726368" height="82.02903549726368" width="395.52"><g><svg viewBox="0 0 395.52 82.02903549726368" height="82.02903549726368" width="395.52"><g><svg viewBox="0 0 395.52 55.9404924044002" height="55.9404924044002" width="395.52"><g transform="matrix(1,0,0,1,0,0)"><svg width="395.52" viewBox="0.9800000190734863 -37.5 279.6099853515625 39.54999923706055" height="55.9404924044002" data-palette-color="#0063db"><path d="M12.65 1.61L12.65 1.61Q9.67 1.61 7.47 0.12 5.27-1.37 3.83-3.88 2.39-6.4 1.68-9.72 0.98-13.04 0.98-16.7L0.98-16.7Q0.98-20.12 1.73-23.63 2.49-27.15 4.05-29.98 5.62-32.81 8.01-34.62 10.4-36.43 13.72-36.43L13.72-36.43Q16.94-36.43 19.12-34.69 21.29-32.96 22.58-30.2 23.88-27.44 24.44-24.02 25-20.61 25-17.19L25-17.19Q25-13.38 24.24-9.99 23.49-6.59 21.95-4 20.41-1.42 18.09 0.1 15.77 1.61 12.65 1.61ZM13.23-25.63L13.23-25.63Q12.3-25.63 11.65-24.9 10.99-24.17 10.55-22.97 10.11-21.78 9.91-20.29 9.72-18.8 9.72-17.29L9.72-17.29Q9.72-15.58 9.94-13.87 10.16-12.16 10.6-10.79 11.04-9.42 11.69-8.59 12.35-7.76 13.28-7.76L13.28-7.76Q14.36-7.76 14.99-8.84 15.63-9.91 15.99-11.43 16.36-12.94 16.48-14.55 16.6-16.16 16.6-17.24L16.6-17.24Q16.6-18.55 16.43-20.02 16.26-21.48 15.87-22.73 15.48-23.97 14.84-24.8 14.21-25.63 13.23-25.63ZM50.39-26.17L50.39-26.17Q50.39-23.54 49.24-21 48.09-18.46 46.19-16.43 44.28-14.4 41.84-13.11 39.4-11.82 36.81-11.67L36.81-11.67Q36.77-10.79 36.74-9.45 36.72-8.11 36.57-6.64 36.42-5.18 36.15-3.71 35.89-2.25 35.37-1.07 34.86 0.1 34.06 0.83 33.25 1.56 32.08 1.56L32.08 1.56Q30.71 1.56 29.9 0.66 29.1-0.24 28.68-1.51 28.27-2.78 28.12-4.17 27.98-5.57 27.93-6.54L27.93-6.54Q27.83-7.96 27.81-9.33 27.78-10.69 27.78-12.11L27.78-12.11Q27.78-12.74 27.78-14.48 27.78-16.21 27.81-18.43 27.83-20.65 27.88-23.07 27.93-25.49 28.02-27.56 28.12-29.64 28.24-31.1 28.37-32.57 28.56-32.81L28.56-32.81Q28.61-32.86 28.85-33.03 29.1-33.2 29.39-33.37 29.68-33.54 29.93-33.69 30.17-33.84 30.27-33.89L30.27-33.89Q32.52-35.16 35.2-36.08 37.89-37.01 40.52-37.01L40.52-37.01Q42.77-37.01 44.6-36.11 46.43-35.21 47.73-33.72 49.02-32.23 49.7-30.25 50.39-28.27 50.39-26.17ZM41.94-25.05L41.94-25.05Q41.94-26.03 41.48-26.76 41.01-27.49 39.94-27.49L39.94-27.49Q39.01-27.49 38.08-27.12 37.16-26.76 36.37-26.37L36.37-26.37Q36.52-24.66 36.64-23.05 36.77-21.44 36.67-19.73L36.67-19.73Q37.45-20.12 38.38-20.63 39.3-21.14 40.09-21.78 40.87-22.41 41.4-23.22 41.94-24.02 41.94-25.05ZM72.85-7.67L72.85-7.67Q72.85-6.74 72.36-5.86L72.36-5.86Q71.87-5.03 70.06-3.91 68.26-2.78 66.06-1.78 63.86-0.78 61.81-0.07 59.76 0.63 58.78 0.63L58.78 0.63Q58.1 0.63 57.17 0.32 56.25 0 55.32-0.49 54.39-0.98 53.63-1.61 52.88-2.25 52.53-2.83L52.53-2.83Q52.34-3.17 52.17-4.2 52-5.22 51.87-6.59 51.75-7.96 51.66-9.5 51.56-11.04 51.48-12.43 51.41-13.82 51.39-14.89 51.36-15.97 51.36-16.46L51.36-16.46Q51.36-18.26 51.48-20.61 51.61-22.95 51.95-25.32 52.29-27.69 52.95-29.86 53.61-32.03 54.73-33.54L54.73-33.54Q55.07-33.98 56.1-34.47 57.12-34.96 58.52-35.4 59.91-35.84 61.52-36.23 63.13-36.62 64.62-36.89 66.11-37.16 67.33-37.33 68.55-37.5 69.18-37.5L69.18-37.5Q69.92-37.5 70.58-37.18 71.24-36.87 71.7-36.33 72.16-35.79 72.43-35.13 72.7-34.47 72.7-33.74L72.7-33.74Q72.7-33.11 72.53-32.67 72.36-32.23 72.02-31.69L72.02-31.69Q71.53-31.05 69.97-30.18 68.4-29.3 66.57-28.44 64.74-27.59 63.06-26.9 61.37-26.22 60.69-25.93L60.69-25.93Q60.49-24.8 60.27-23.66 60.05-22.51 59.96-21.34L59.96-21.34Q61.47-22.12 63.37-22.8 65.28-23.49 66.99-23.49L66.99-23.49Q70.45-23.49 70.45-20.07L70.45-20.07Q70.45-19.24 70.14-18.6 69.82-17.97 69.31-17.48 68.79-16.99 68.13-16.63 67.48-16.26 66.84-15.92L66.84-15.92Q65.28-15.09 63.57-14.48 61.86-13.87 60.15-13.28L60.15-13.28Q60.05-12.89 59.96-12.43 59.86-11.96 59.86-11.52L59.86-11.52Q59.86-10.84 59.96-10.16 60.05-9.47 60.15-8.79L60.15-8.79Q60.74-8.98 62.03-9.42 63.33-9.86 64.74-10.3 66.16-10.74 67.48-11.06 68.79-11.38 69.43-11.38L69.43-11.38Q70.16-11.38 70.8-11.06 71.43-10.74 71.87-10.23 72.31-9.72 72.58-9.03 72.85-8.35 72.85-7.67ZM103.46-20.95L103.46-20.95Q103.46-19.87 103.36-17.9 103.26-15.92 103-13.55 102.73-11.18 102.24-8.72 101.75-6.25 100.97-4.25 100.19-2.25 99.06-0.95 97.94 0.34 96.38 0.34L96.38 0.34Q94.91 0.34 93.69-0.51 92.47-1.37 91.5-2.61 90.52-3.86 89.79-5.27 89.06-6.69 88.57-7.86L88.57-7.86Q87.54-10.35 86.52-12.77 85.49-15.19 84.56-17.68L84.56-17.68 84.56-16.31Q84.56-14.21 84.54-12.13 84.51-10.06 84.22-8.01L84.22-8.01Q84.12-7.18 84-6.08 83.88-4.98 83.64-3.91 83.39-2.83 82.93-1.9 82.46-0.98 81.68-0.54L81.68-0.54Q81.24-0.29 80.88-0.24 80.51-0.2 80.07-0.1L80.07-0.1 79.92-0.1Q78.8-0.1 78.02-0.85 77.24-1.61 76.7-2.81 76.16-4 75.85-5.49 75.53-6.98 75.36-8.42 75.19-9.86 75.14-11.08 75.09-12.3 75.09-13.04L75.09-13.04Q75.09-14.16 75.19-16.33 75.29-18.51 75.6-21.14 75.92-23.78 76.43-26.56 76.95-29.35 77.78-31.62 78.61-33.89 79.78-35.33 80.95-36.77 82.51-36.77L82.51-36.77Q84.03-36.77 85.22-35.6 86.42-34.42 87.35-32.81 88.27-31.2 88.91-29.44 89.54-27.69 89.98-26.51L89.98-26.51Q90.81-24.22 91.59-21.95 92.38-19.68 93.11-17.33L93.11-17.33Q93.16-17.24 93.3-16.8 93.45-16.36 93.64-15.82L93.64-15.82Q93.84-15.23 94.13-14.5L94.13-14.5Q94.13-15.14 94.11-15.41 94.08-15.67 94.08-15.89 94.08-16.11 94.08-16.46 94.08-16.8 94.08-17.53L94.08-17.53Q94.04-19.14 94.01-20.75 93.99-22.36 93.99-23.93L93.99-23.93Q93.99-24.61 94.01-25.83 94.04-27.05 94.16-28.44 94.28-29.83 94.52-31.25 94.77-32.67 95.23-33.81 95.7-34.96 96.4-35.69 97.11-36.43 98.14-36.43L98.14-36.43Q99.36-36.43 100.24-35.5 101.12-34.57 101.7-33.13 102.29-31.69 102.63-29.91 102.97-28.13 103.17-26.42 103.36-24.71 103.41-23.24 103.46-21.78 103.46-20.95ZM128.26-28.86L128.26-28.86Q128.26-25.49 126.6-22.73 124.94-19.97 122.16-18.12L122.16-18.12Q123.62-17.82 124.7-17.11 125.77-16.41 126.48-15.38 127.19-14.36 127.55-13.06 127.92-11.77 127.92-10.35L127.92-10.35Q127.92-7.57 126.63-5.49 125.33-3.42 123.28-2.08 121.23-0.73 118.72-0.07 116.2 0.59 113.71 0.59L113.71 0.59Q112.34 0.59 110.98 0.39 109.61 0.2 108.39-0.29L108.39-0.29Q107.95-0.44 107.66-1.49 107.36-2.54 107.19-4.05 107.02-5.57 106.92-7.32 106.83-9.08 106.78-10.69 106.73-12.3 106.73-13.53 106.73-14.75 106.73-15.23L106.73-15.23Q106.73-16.94 106.73-18.68 106.73-20.41 106.83-22.12L106.83-22.12Q106.83-22.56 106.85-23.49 106.87-24.41 106.9-25.56 106.92-26.71 107-27.98 107.07-29.25 107.19-30.35 107.31-31.45 107.53-32.23 107.75-33.01 108.05-33.2L108.05-33.2Q109.17-33.94 110.54-34.59 111.9-35.25 113.37-35.74 114.83-36.23 116.3-36.52 117.76-36.82 119.08-36.82L119.08-36.82Q120.89-36.82 122.57-36.3 124.26-35.79 125.5-34.77 126.75-33.74 127.5-32.25 128.26-30.76 128.26-28.86ZM120.16-26.27L120.16-26.27Q120.16-27.1 119.64-27.49 119.13-27.88 118.3-27.88L118.3-27.88Q117.62-27.88 116.86-27.59 116.1-27.29 115.57-26.81L115.57-26.81Q115.42-26.66 115.3-25.98 115.18-25.29 115.1-24.44 115.03-23.58 115-22.83 114.98-22.07 114.98-21.83L114.98-21.83Q114.98-21.73 114.98-21.51 114.98-21.29 115-21.04 115.03-20.8 115.08-20.61 115.13-20.41 115.22-20.41L115.22-20.41Q116.05-20.41 116.93-21.02 117.81-21.63 118.52-22.53 119.23-23.44 119.69-24.46 120.16-25.49 120.16-26.27ZM119.96-12.16L119.96-12.16Q119.96-12.99 119.37-13.33 118.79-13.67 118.06-13.67L118.06-13.67Q117.37-13.67 116.62-13.35 115.86-13.04 115.37-12.6L115.37-12.6Q115.22-12.5 115.15-12.11 115.08-11.72 115.05-11.25 115.03-10.79 115-10.38 114.98-9.96 114.98-9.81L114.98-9.81Q114.98-9.72 114.98-9.42 114.98-9.13 115-8.81 115.03-8.5 115.1-8.23 115.18-7.96 115.27-7.96L115.27-7.96Q115.96-7.96 116.79-8.35 117.62-8.74 118.32-9.33 119.03-9.91 119.5-10.67 119.96-11.43 119.96-12.16ZM153.75-6.74L153.75-6.74Q153.75-5.52 152.75-4.44 151.75-3.37 150.16-2.49 148.57-1.61 146.62-0.95 144.67-0.29 142.76 0.17 140.86 0.63 139.17 0.88 137.49 1.12 136.51 1.12L136.51 1.12Q135.58 1.12 134.53 0.95 133.48 0.78 132.8 0.2L132.8 0.2Q132.41-0.1 132.12-1.12 131.82-2.15 131.55-3.56 131.29-4.98 131.09-6.62 130.9-8.25 130.77-9.81 130.65-11.38 130.58-12.7 130.51-14.01 130.51-14.75L130.51-14.75Q130.51-15.97 130.58-17.7 130.65-19.43 130.8-21.41 130.94-23.39 131.19-25.44 131.43-27.49 131.75-29.32 132.07-31.15 132.53-32.62 133-34.08 133.53-34.91L133.53-34.91Q134.46-36.23 135.88-36.23L135.88-36.23Q136.85-36.23 137.54-35.57 138.22-34.91 138.63-33.86 139.05-32.81 139.27-31.52 139.49-30.22 139.59-28.96 139.68-27.69 139.68-26.61 139.68-25.54 139.68-24.9L139.68-24.9Q139.68-21.09 139.51-17.36 139.34-13.62 139.34-9.81L139.34-9.81 139.34-7.91Q141.54-8.59 144.13-9.2 146.72-9.81 149.06-9.81L149.06-9.81Q149.89-9.81 150.74-9.72 151.6-9.62 152.26-9.3 152.92-8.98 153.33-8.37 153.75-7.76 153.75-6.74ZM166.15 1.61L166.15 1.61Q163.17 1.61 160.97 0.12 158.77-1.37 157.33-3.88 155.89-6.4 155.19-9.72 154.48-13.04 154.48-16.7L154.48-16.7Q154.48-20.12 155.23-23.63 155.99-27.15 157.55-29.98 159.12-32.81 161.51-34.62 163.9-36.43 167.22-36.43L167.22-36.43Q170.44-36.43 172.62-34.69 174.79-32.96 176.08-30.2 177.38-27.44 177.94-24.02 178.5-20.61 178.5-17.19L178.5-17.19Q178.5-13.38 177.74-9.99 176.99-6.59 175.45-4 173.91-1.42 171.59 0.1 169.27 1.61 166.15 1.61ZM166.73-25.63L166.73-25.63Q165.81-25.63 165.15-24.9 164.49-24.17 164.05-22.97 163.61-21.78 163.41-20.29 163.22-18.8 163.22-17.29L163.22-17.29Q163.22-15.58 163.44-13.87 163.66-12.16 164.1-10.79 164.54-9.42 165.19-8.59 165.85-7.76 166.78-7.76L166.78-7.76Q167.86-7.76 168.49-8.84 169.13-9.91 169.49-11.43 169.86-12.94 169.98-14.55 170.1-16.16 170.1-17.24L170.1-17.24Q170.1-18.55 169.93-20.02 169.76-21.48 169.37-22.73 168.98-23.97 168.34-24.8 167.71-25.63 166.73-25.63ZM203.11-11.72L203.11-11.72Q202.67-9.52 201.72-7.15 200.76-4.79 199.27-2.83 197.79-0.88 195.73 0.37 193.68 1.61 191.05 1.61L191.05 1.61Q189.09 1.61 187.53 0.83 185.97 0.05 184.7-1.27 183.43-2.59 182.5-4.3 181.57-6.01 180.96-7.84 180.35-9.67 180.06-11.47 179.77-13.28 179.77-14.84L179.77-14.84Q179.77-17.04 180.18-19.56 180.6-22.07 181.43-24.54 182.26-27 183.53-29.27 184.8-31.54 186.53-33.28 188.26-35.01 190.44-36.06 192.61-37.11 195.3-37.11L195.3-37.11Q197-37.11 198.47-36.45 199.93-35.79 201.01-34.69 202.08-33.59 202.69-32.08 203.3-30.57 203.3-28.91L203.3-28.91 203.3-28.47Q203.3-27.59 203.23-26.29 203.16-25 202.77-23.83 202.38-22.66 201.59-21.8 200.81-20.95 199.4-20.95L199.4-20.95Q197.69-20.95 196.81-21.73 195.93-22.51 195.93-24.32L195.93-24.32Q195.93-25 195.98-25.68 196.03-26.37 196.03-27.05L196.03-27.05Q196.03-28.08 195.69-28.64 195.34-29.2 194.27-29.2L194.27-29.2Q193.05-29.2 192.07-28.42 191.1-27.64 190.36-26.37 189.63-25.1 189.09-23.49 188.56-21.88 188.21-20.24 187.87-18.6 187.73-17.09 187.58-15.58 187.58-14.5L187.58-14.5Q187.58-13.62 187.68-12.48 187.78-11.33 188.09-10.28 188.41-9.23 189.05-8.5 189.68-7.76 190.71-7.76L190.71-7.76Q192.46-7.76 193.54-8.86 194.61-9.96 195-11.67L195-11.67Q194.32-11.77 193.66-11.99 193-12.21 192.44-12.62 191.88-13.04 191.54-13.65 191.19-14.26 191.19-15.09L191.19-15.09Q191.19-16.6 192.22-17.46 193.24-18.31 194.64-18.75 196.03-19.19 197.49-19.31 198.96-19.43 199.84-19.43L199.84-19.43Q200.47-19.43 201.69-19.34 202.91-19.24 204.11-18.92 205.3-18.6 206.18-18.02 207.06-17.43 207.06-16.5L207.06-16.5Q207.06-14.65 206.06-13.31 205.06-11.96 203.11-11.72ZM229.13-11.72L229.13-11.72Q228.69-9.52 227.74-7.15 226.79-4.79 225.3-2.83 223.81-0.88 221.76 0.37 219.71 1.61 217.07 1.61L217.07 1.61Q215.12 1.61 213.55 0.83 211.99 0.05 210.72-1.27 209.45-2.59 208.52-4.3 207.6-6.01 206.99-7.84 206.38-9.67 206.08-11.47 205.79-13.28 205.79-14.84L205.79-14.84Q205.79-17.04 206.21-19.56 206.62-22.07 207.45-24.54 208.28-27 209.55-29.27 210.82-31.54 212.55-33.28 214.29-35.01 216.46-36.06 218.63-37.11 221.32-37.11L221.32-37.11Q223.03-37.11 224.49-36.45 225.96-35.79 227.03-34.69 228.11-33.59 228.72-32.08 229.33-30.57 229.33-28.91L229.33-28.91 229.33-28.47Q229.33-27.59 229.25-26.29 229.18-25 228.79-23.83 228.4-22.66 227.62-21.8 226.84-20.95 225.42-20.95L225.42-20.95Q223.71-20.95 222.83-21.73 221.95-22.51 221.95-24.32L221.95-24.32Q221.95-25 222-25.68 222.05-26.37 222.05-27.05L222.05-27.05Q222.05-28.08 221.71-28.64 221.37-29.2 220.29-29.2L220.29-29.2Q219.07-29.2 218.1-28.42 217.12-27.64 216.39-26.37 215.65-25.1 215.12-23.49 214.58-21.88 214.24-20.24 213.9-18.6 213.75-17.09 213.6-15.58 213.6-14.5L213.6-14.5Q213.6-13.62 213.7-12.48 213.8-11.33 214.12-10.28 214.43-9.23 215.07-8.5 215.7-7.76 216.73-7.76L216.73-7.76Q218.49-7.76 219.56-8.86 220.63-9.96 221.02-11.67L221.02-11.67Q220.34-11.77 219.68-11.99 219.02-12.21 218.46-12.62 217.9-13.04 217.56-13.65 217.22-14.26 217.22-15.09L217.22-15.09Q217.22-16.6 218.24-17.46 219.27-18.31 220.66-18.75 222.05-19.19 223.52-19.31 224.98-19.43 225.86-19.43L225.86-19.43Q226.49-19.43 227.71-19.34 228.94-19.24 230.13-18.92 231.33-18.6 232.21-18.02 233.09-17.43 233.09-16.5L233.09-16.5Q233.09-14.65 232.08-13.31 231.08-11.96 229.13-11.72ZM254.57-7.67L254.57-7.67Q254.57-6.74 254.08-5.86L254.08-5.86Q253.59-5.03 251.78-3.91 249.98-2.78 247.78-1.78 245.58-0.78 243.53-0.07 241.48 0.63 240.5 0.63L240.5 0.63Q239.82 0.63 238.89 0.32 237.97 0 237.04-0.49 236.11-0.98 235.35-1.61 234.6-2.25 234.25-2.83L234.25-2.83Q234.06-3.17 233.89-4.2 233.72-5.22 233.6-6.59 233.47-7.96 233.38-9.5 233.28-11.04 233.21-12.43 233.13-13.82 233.11-14.89 233.08-15.97 233.08-16.46L233.08-16.46Q233.08-18.26 233.21-20.61 233.33-22.95 233.67-25.32 234.01-27.69 234.67-29.86 235.33-32.03 236.45-33.54L236.45-33.54Q236.79-33.98 237.82-34.47 238.84-34.96 240.24-35.4 241.63-35.84 243.24-36.23 244.85-36.62 246.34-36.89 247.83-37.16 249.05-37.33 250.27-37.5 250.91-37.5L250.91-37.5Q251.64-37.5 252.3-37.18 252.96-36.87 253.42-36.33 253.88-35.79 254.15-35.13 254.42-34.47 254.42-33.74L254.42-33.74Q254.42-33.11 254.25-32.67 254.08-32.23 253.74-31.69L253.74-31.69Q253.25-31.05 251.69-30.18 250.12-29.3 248.29-28.44 246.46-27.59 244.78-26.9 243.09-26.22 242.41-25.93L242.41-25.93Q242.21-24.8 241.99-23.66 241.77-22.51 241.68-21.34L241.68-21.34Q243.19-22.12 245.09-22.8 247-23.49 248.71-23.49L248.71-23.49Q252.17-23.49 252.17-20.07L252.17-20.07Q252.17-19.24 251.86-18.6 251.54-17.97 251.03-17.48 250.51-16.99 249.86-16.63 249.2-16.26 248.56-15.92L248.56-15.92Q247-15.09 245.29-14.48 243.58-13.87 241.87-13.28L241.87-13.28Q241.77-12.89 241.68-12.43 241.58-11.96 241.58-11.52L241.58-11.52Q241.58-10.84 241.68-10.16 241.77-9.47 241.87-8.79L241.87-8.79Q242.46-8.98 243.75-9.42 245.05-9.86 246.46-10.3 247.88-10.74 249.2-11.06 250.51-11.38 251.15-11.38L251.15-11.38Q251.88-11.38 252.52-11.06 253.15-10.74 253.59-10.23 254.03-9.72 254.3-9.03 254.57-8.35 254.57-7.67ZM280.59-25.68L280.59-25.68Q280.59-22.31 279.03-19.63 277.47-16.94 274.88-14.89L274.88-14.89Q275.66-13.72 276.49-12.16 277.32-10.6 277.98-8.86 278.64-7.13 279.05-5.4 279.47-3.66 279.47-2.2L279.47-2.2Q279.47-0.63 278.71 0.61 277.95 1.86 276.15 1.86L276.15 1.86Q274.63 1.86 273.53 0.39 272.44-1.07 271.58-3.1 270.73-5.13 270.02-7.23 269.31-9.33 268.68-10.6L268.68-10.6Q267.8-10.3 266.97-9.94 266.14-9.57 265.26-9.23L265.26-9.23Q265.21-8.15 265.09-6.27 264.97-4.39 264.55-2.54 264.14-0.68 263.31 0.68 262.48 2.05 261.01 2.05L261.01 2.05Q259.4 2.05 258.52 0.73 257.64-0.59 257.27-2.39 256.91-4.2 256.86-6.08 256.81-7.96 256.81-9.03L256.81-9.03Q256.81-11.33 256.91-13.55 257.01-15.77 257.01-18.07L257.01-18.07Q257.01-20.17 256.93-22.27 256.86-24.37 256.86-26.51L256.86-26.51Q256.86-27 256.86-27.76 256.86-28.52 256.93-29.32 257.01-30.13 257.1-30.86 257.2-31.59 257.45-32.03L257.45-32.03Q257.93-33.06 259.67-33.98 261.4-34.91 263.48-35.62 265.55-36.33 267.53-36.74 269.51-37.16 270.48-37.16L270.48-37.16Q272.97-37.16 274.88-36.23 276.78-35.3 278.05-33.72 279.32-32.13 279.96-30.05 280.59-27.98 280.59-25.68ZM271.56-25L271.56-25Q271.56-26.27 270.97-26.93 270.39-27.59 269.07-27.59L269.07-27.59Q268.09-27.59 267.09-27.25 266.09-26.9 265.26-26.46L265.26-26.46Q265.45-22.61 265.4-18.8L265.4-18.8Q266.43-19.14 267.5-19.68 268.58-20.21 269.48-21 270.39-21.78 270.97-22.75 271.56-23.73 271.56-25Z" opacity="1" transform="matrix(1,0,0,1,0,0)" fill="#0063db" class="undefined-text-0" data-fill-palette-color="primary" id="text-0"></path></svg></g></svg></g><g transform="matrix(1,0,0,1,75.54432000000001,69.14670008926139)"><svg viewBox="0 0 244.43135999999996 12.882335408002291" height="12.882335408002291" width="244.43135999999996"><g transform="matrix(1,0,0,1,0,0)"><svg width="244.43135999999996" viewBox="1.399999976158142 -36 697.22998046875 36.75" height="12.882335408002291" data-palette-color="#0063db"><path d="M11.8-16.55L12-17.2 12.5-18.6Q12.85-19.45 13.7-22.7L13.7-22.7 14.05-24Q14.25-24.75 14.95-26.85 15.65-28.95 16.05-30.1L16.05-30.1Q16.3-30.65 16.65-31.75L16.65-31.75Q17.95-35.05 18.55-35.05L18.55-35.05Q18.9-35.05 19-34.95 19.1-34.85 19.15-34.6 19.2-34.35 19.25-34.2L19.25-34.2Q19.35-33.8 19.5-33.27 19.65-32.75 19.75-32.1L19.75-32.1Q21.75-26.9 22.15-25.9L22.15-25.9 23.7-22.55 24.6-20.55Q24.7-20.85 24.8-21L24.8-21 25.3-22.25Q25.4-22.55 25.7-24.3L25.7-24.3Q26.05-26.5 26.3-27.45L26.3-27.45Q26.55-28.4 27.2-30.2L27.2-30.2Q27.95-32.4 28.05-33.15L28.05-33.15Q28.25-34.9 29.25-34.9L29.25-34.9Q30.05-35.1 31.05-35.1L31.05-35.1Q31.55-35.1 31.7-35.05L31.7-35.05Q32.3-35.05 32.3-34.6L32.3-34.6 32.2-34 31.75-32.6Q31.4-31.25 31.15-30.55L31.15-30.55Q30.9-29.65 30.55-28.4 30.2-27.15 29.85-25.85L29.85-25.85Q29.1-22.9 28.55-21.05L28.55-21.05Q28.25-19.85 27.9-17.53 27.55-15.2 27.55-14.8L27.55-14.8Q27.55-13.6 26.85-11.9L26.85-11.9Q26.6-11.15 26.1-8.6 25.6-6.05 25.45-5.15L25.45-5.15Q24.95-1.85 24.75-1.5L24.75-1.5Q24.7-1.2 24.63-0.78 24.55-0.35 24.48-0.15 24.4 0.05 24.25 0.05L24.25 0.05Q23.85 0.05 23.68-0.15 23.5-0.35 23.2-1L23.2-1Q22.8-1.5 21.15-5.85L21.15-5.85Q20.8-6.75 19.05-11.7L19.05-11.7Q18.75-12.75 18.05-14.55L18.05-14.55 17.35-16.4 16.65-15Q16.15-13.9 15.15-11.3L15.15-11.3 14.75-10.3Q14.15-8.55 12.85-3.15L12.85-3.15 12.5-1.7Q12.35-1.1 12.03-0.53 11.7 0.05 11.45 0.05L11.45 0.05Q11.1 0.05 10.93-0.2 10.75-0.45 10.6-1L10.6-1Q10.4-1.4 9.9-3.85L9.9-3.85Q9.7-4.65 9.3-6.28 8.9-7.9 8.7-8.4L8.7-8.4Q8.25-9.5 7.65-11.63 7.05-13.75 6.95-14.15L6.95-14.15Q6.55-15.1 4.65-22.2L4.65-22.2Q4.35-23.15 4.1-24.08 3.85-25 3.65-25.7L3.65-25.7 2.7-29.25 1.6-33.3Q1.4-33.95 1.4-34.3L1.4-34.3Q1.4-34.45 1.5-34.5 1.6-34.55 1.75-34.55L1.75-34.55 3.3-34.55Q4.15-34.55 4.5-34.6L4.5-34.6 5.05-34.7Q5.55-34.85 5.73-34.55 5.9-34.25 6.1-33.3L6.1-33.3Q6.2-32.9 7.1-29.78 8-26.65 9.2-23.65L9.2-23.65Q10.15-20.7 10.95-18.75L10.95-18.75 11.8-16.55ZM59.6-2.05Q60.95-0.7 60.95-0.2L60.95-0.2Q60.95-0.1 60.7 0.15L60.7 0.15Q60.25 0.45 58.45 0.45L58.45 0.45Q57.15 0.45 56.8 0.28 56.45 0.1 56.27-0.3 56.1-0.7 56-0.9L56-0.9Q55.85-1.2 54.77-2.63 53.7-4.05 53.15-4.8L53.15-4.8Q50.5-8.2 48.55-10.95L48.55-10.95Q47.35-12.65 44.1-16.8L44.1-16.8 43.3-17.8 39.85-22.1 39.65-20.1Q39.45-18.6 39.55-16.5L39.55-16.5Q39.7-15.1 39.75-9.25 39.8-3.4 39.8-0.7L39.8-0.7Q39.8 0.1 39.2 0.33 38.6 0.55 37.8 0.55L37.8 0.55Q37.45 0.55 37.35 0.25 37.25-0.05 37.22-0.4 37.2-0.75 37.2-0.85L37.2-0.85Q37.1-1.65 37.1-3.2L37.1-3.2Q37.1-4.2 37.15-4.7L37.15-4.7Q37.2-7.4 37.3-14.13 37.4-20.85 37.4-26.2L37.4-26.2Q37.4-31.95 37.25-32.9L37.25-32.9Q37.2-33.3 37.2-33.95L37.2-33.95Q37.2-34.7 37.42-34.9 37.65-35.1 38.1-35.1L38.1-35.1Q39.1-35.1 40.05-35.05L40.05-35.05 45.5-34.95Q48.5-34.95 51.75-33.9 55-32.85 55-30L55-30Q55-27.3 53-25.8 51-24.3 48.52-23.75 46.05-23.2 44.2-23.2L44.2-23.2Q43.55-23.2 43.5-23.25L43.5-23.25Q43.8-22.95 47.45-17.95L47.45-17.95Q58.45-3.2 59.6-2.05L59.6-2.05ZM39.7-25.25Q41.35-25.25 42.2-25.3L42.2-25.3Q45.1-25.4 46.7-25.7L46.7-25.7Q49-26.1 50.17-26.8 51.35-27.5 51.35-29L51.35-29Q51.35-30 50.3-30.73 49.25-31.45 47.77-31.83 46.3-32.2 45.2-32.2L45.2-32.2Q43.95-32.25 41.7-32.25L41.7-32.25 40-32.25 39.7-25.25ZM66.55-35.25Q67.2-35.2 67.82-35.23 68.45-35.25 68.9-35.25L68.9-35.25Q70-35.25 70.5-35.2L70.5-35.2Q71.1-35.15 71.35-34.95 71.6-34.75 71.6-34.4L71.6-34.4Q71.6-34.15 71.55-33.85 71.5-33.55 71.45-33.3L71.45-33.3Q70.9-29.05 70.85-24.55L70.85-24.55Q70.8-23.25 70.8-20.55L70.8-20.55 70.85-14.5Q70.9-13.75 70.9-12.95L70.9-12.95 70.95-10.95Q71.05-8.35 71.05-7.1L71.05-7.1Q71.05-6.15 71-5.95L71-5.95Q70.95-5.75 70.95-4.8L70.95-4.8 71-2.05Q71.05-1.45 71.05-0.55L71.05-0.55Q71.1 0.1 70.67 0.28 70.25 0.45 69.55 0.4L69.55 0.4 65 0.4Q64.25 0.45 64.05 0.08 63.85-0.3 63.8-1.15L63.8-1.15Q63.7-1.5 63.9-3L63.9-3Q64.1-4.4 64.1-5.4L64.1-5.4Q64.1-5.75 64.45-12.15L64.45-12.15Q64.75-16.85 64.75-17.3L64.75-17.3 64.85-22.2 64.95-26.75 65.05-29.45 65.15-31.25 65.15-33.35Q65.15-35.3 66.15-35.3L66.15-35.3Q66.4-35.3 66.55-35.25L66.55-35.25ZM100.74-35.95Q101.34-35.9 101.47-35.65 101.59-35.4 101.57-34.98 101.54-34.55 101.54-34.35L101.54-34.35Q101.59-33.7 101.29-33.45 100.99-33.2 100.34-33.2L100.34-33.2Q99.94-33.2 98.82-33.15 97.69-33.1 96.09-33.15L96.09-33.15 95.89-33.15 95.79-24.1 95.74-15.3Q95.74-13.3 95.97-10.23 96.19-7.15 96.24-6.35L96.24-6.35Q96.54-2.35 96.54-1.85L96.54-1.85Q96.59-0.85 96.09-0.55 95.59-0.25 94.34-0.25L94.34-0.25 92.14-0.3Q91.89-0.3 83.94-0.45L83.94-0.45 80.84-0.5Q80.34-0.5 80.34-1.5L80.34-1.5Q80.34-1.85 80.44-2.85L80.44-2.85Q80.54-4.15 80.54-4.85L80.54-4.85Q80.44-6.15 80.44-9.4L80.44-9.4Q80.44-13.75 80.57-18.7 80.69-23.65 80.89-26.15L80.89-26.15Q80.99-27.45 80.99-29.65L80.99-29.65Q80.99-32.1 80.84-33.35L80.84-33.35 79.94-33.4 75.79-33.3Q75.39-33.3 75.39-34.1L75.39-34.1 75.44-35.2Q75.44-35.6 75.57-35.73 75.69-35.85 75.99-35.85L75.99-35.85Q76.19-35.85 76.49-35.8 76.79-35.75 77.19-35.75L77.19-35.75 87.84-35.8 96.54-35.9Q98.59-35.95 100.74-35.95L100.74-35.95ZM127.04-33.25L127.04-32.7Q127.04-31.55 126.84-31.55L126.84-31.55Q126.54-31.55 126.17-31.63 125.79-31.7 125.24-31.7L125.24-31.7 117.24-31.7 111.04-31.75Q110.74-31.75 108.79-31.6L108.79-31.6 107.64-31.5 107.54-30.15Q107.49-29.4 107.49-27.8L107.49-27.8Q107.49-27 107.59-25.7L107.59-25.7Q107.69-24.5 107.69-23.95L107.69-23.95 107.69-21.95Q107.69-21.15 107.74-20.7L107.74-20.7Q108.19-20.65 109.09-20.65L109.09-20.65 111.09-20.65Q111.39-20.65 112.29-20.75L112.29-20.75Q113.59-20.85 114.54-20.85L114.54-20.85Q114.94-20.85 117.34-20.7L117.34-20.7 118.44-20.65Q118.84-20.65 119.59-20.73 120.34-20.8 121.04-20.8L121.04-20.8 122.69-20.75Q123.99-20.65 124.49-20.65L124.49-20.65Q125.04-20.65 125.24-20.7L125.24-20.7 125.54-20.75Q125.89-20.75 126.04-20.53 126.19-20.3 126.14-20.1L126.14-20.1Q126.09-19.75 126.09-19.23 126.09-18.7 126.04-18.3L126.04-18.3Q125.99-17.9 125.89-17.82 125.79-17.75 125.29-17.75L125.29-17.75 123.29-17.95Q119.54-18.3 118.39-18.3L118.39-18.3Q114.14-18.3 112.14-18.15L112.14-18.15Q111.34-18.05 110.39-18.05 109.44-18.05 109.19-18.05L109.19-18.05Q108.24-18.05 107.79-18.1L107.79-18.1 107.64-17.3Q107.54-16.4 107.54-15.7L107.54-15.7Q107.54-15.1 107.64-14.3L107.64-14.3Q107.74-13.5 107.74-12.9L107.74-12.9 107.79-6.95 107.74-4.45Q107.69-4 107.69-3.2L107.69-3.2Q108.34-3.15 109.59-3.15L109.59-3.15Q110.64-3.1 112.84-3.1L112.84-3.1 115.54-3.05Q116.39-3 118.14-3L118.14-3Q119.19-3 120.89-3.1L120.89-3.1 122.99-3.15Q124.19-3.15 124.99-3.1 125.79-3.05 126.19-3.05L126.19-3.05Q126.59-3.05 126.67-2.9 126.74-2.75 126.74-2.25L126.74-2.25Q126.74-1.9 126.69-1.53 126.64-1.15 126.64-0.7L126.64-0.7Q126.64-0.35 126.39-0.23 126.14-0.1 125.59-0.1L125.59-0.1Q125.04-0.1 124.69-0.15L124.69-0.15Q123.34-0.3 119.24-0.3L119.24-0.3Q116.74-0.3 115.64-0.25L115.64-0.25Q114.79-0.2 112.84-0.2L112.84-0.2 108.19-0.25Q107.39-0.3 106.29-0.3L106.29-0.3Q105.59-0.3 105.37-0.48 105.14-0.65 105.14-1.05L105.14-1.05 105.19-1.85Q105.24-2.05 105.24-2.3L105.24-2.3Q105.24-2.45 105.19-3.03 105.14-3.6 105.14-5.15L105.14-5.15Q105.14-6.65 105.04-10.05L105.04-10.05Q104.89-12.85 104.89-15.45L104.89-15.45Q104.89-16.55 105.14-21.8L105.14-21.8Q105.19-22.85 105.24-23.9 105.29-24.95 105.29-25.8L105.29-25.8Q105.29-31.6 105.14-33.45L105.14-33.45Q104.99-34.65 106.59-34.65L106.59-34.65Q106.99-34.65 107.89-34.55L107.89-34.55Q108.69-34.45 109.09-34.45L109.09-34.45 112.24-34.55Q115.64-34.75 117.49-34.75L117.49-34.75Q119.64-34.75 123.54-34.65L123.54-34.65Q124.79-34.6 126.19-34.6L126.19-34.6Q126.79-34.6 126.94-34.3 127.09-34 127.07-33.68 127.04-33.35 127.04-33.25L127.04-33.25ZM156.09-21.5L158.24-21.45Q159.29-21.45 160.19-21.55L160.19-21.55Q160.49-21.6 161.14-21.6L161.14-21.6Q161.84-21.6 162.19-21.55L162.19-21.55 163.34-21.45 163.49-22.95 163.64-25.35 163.74-30.25 163.84-34.1Q163.89-34.85 164.04-35.1 164.19-35.35 164.74-35.4L164.74-35.4Q165.24-35.4 167.54-35.7L167.54-35.7Q167.94-35.75 168.99-35.75L168.99-35.75Q170.59-35.75 171.64-35.6L171.64-35.6Q172.19-35.5 172.31-35.38 172.44-35.25 172.46-34.95 172.49-34.65 172.54-34.4L172.54-34.4Q172.54-33.6 172.39-31.7L172.39-31.7Q172.19-28.2 172.19-26.9L172.19-26.9Q172.19-26.25 171.89-22.75L171.89-22.75Q171.59-18.95 171.59-17.8L171.59-17.8 171.69-7.9Q171.69-2.3 171.89-1.05L171.89-1.05 171.89-0.95Q171.89-0.4 171.69-0.28 171.49-0.15 171.24-0.18 170.99-0.2 170.89-0.2L170.89-0.2Q170.49-0.3 169.89-0.3L169.89-0.3Q169.69-0.3 168.59-0.2L168.59-0.2Q167.19-0.05 164.09-0.05L164.09-0.05 163.99-0.05Q163.29-0.05 163.29-0.5L163.29-0.5Q163.29-1.45 163.26-4.25 163.24-7.05 163.09-8.35L163.09-8.35Q162.99-10.25 162.99-12.05L162.99-12.05Q162.94-12.8 162.94-14.35L162.94-14.35 161.49-14.35 159.34-14.3 158.44-14.25 157.44-14.3Q156.69-14.3 156.24-14.35L156.24-14.35 156.09-11.2Q155.94-9.45 155.94-6.65L155.94-6.65 155.94-4.1Q155.94-1.4 156.04-0.85L156.04-0.85Q156.14-0.25 155.86-0.13 155.59 0 155.21 0 154.84 0 154.69 0L154.69 0Q154.29-0.05 153.34-0.13 152.39-0.2 151.79-0.2L151.79-0.2 150.34-0.1Q149.99-0.05 147.74 0.1L147.74 0.1Q146.59 0.25 146.59-1.3L146.59-1.3 146.64-3.25 146.74-6.85Q146.74-7.95 146.79-8.9L146.79-8.9 146.84-14.7Q146.84-16.7 146.79-17.25L146.79-17.25Q146.64-18.4 146.64-20.25L146.64-20.25 146.69-23.3Q146.74-24.05 146.74-25.25L146.74-25.25Q146.74-26.65 147.04-31.05L147.04-31.05 147.19-34.5Q147.19-34.9 147.34-35.05 147.49-35.2 147.79-35.2L147.79-35.2 148.44-35.15Q149.09-35.05 150.14-35 151.19-34.95 152.19-34.95L152.19-34.95 154.49-35Q155.04-35.05 155.74-35.05L155.74-35.05 155.79-35.05Q156.19-35.05 156.19-34.5L156.19-34.5Q156.24-34.4 156.26-32.52 156.29-30.65 156.29-28.1L156.29-28.1Q156.29-26.5 156.19-23.8L156.19-23.8 156.09-21.5ZM199.48-33.25L199.48-32.7Q199.48-31.55 199.28-31.55L199.28-31.55Q198.98-31.55 198.61-31.63 198.23-31.7 197.68-31.7L197.68-31.7 189.68-31.7 183.48-31.75Q183.18-31.75 181.23-31.6L181.23-31.6 180.08-31.5 179.98-30.15Q179.93-29.4 179.93-27.8L179.93-27.8Q179.93-27 180.03-25.7L180.03-25.7Q180.13-24.5 180.13-23.95L180.13-23.95 180.13-21.95Q180.13-21.15 180.18-20.7L180.18-20.7Q180.63-20.65 181.53-20.65L181.53-20.65 183.53-20.65Q183.83-20.65 184.73-20.75L184.73-20.75Q186.03-20.85 186.98-20.85L186.98-20.85Q187.38-20.85 189.78-20.7L189.78-20.7 190.88-20.65Q191.28-20.65 192.03-20.73 192.78-20.8 193.48-20.8L193.48-20.8 195.13-20.75Q196.43-20.65 196.93-20.65L196.93-20.65Q197.48-20.65 197.68-20.7L197.68-20.7 197.98-20.75Q198.33-20.75 198.48-20.53 198.63-20.3 198.58-20.1L198.58-20.1Q198.53-19.75 198.53-19.23 198.53-18.7 198.48-18.3L198.48-18.3Q198.43-17.9 198.33-17.82 198.23-17.75 197.73-17.75L197.73-17.75 195.73-17.95Q191.98-18.3 190.83-18.3L190.83-18.3Q186.58-18.3 184.58-18.15L184.58-18.15Q183.78-18.05 182.83-18.05 181.88-18.05 181.63-18.05L181.63-18.05Q180.68-18.05 180.23-18.1L180.23-18.1 180.08-17.3Q179.98-16.4 179.98-15.7L179.98-15.7Q179.98-15.1 180.08-14.3L180.08-14.3Q180.18-13.5 180.18-12.9L180.18-12.9 180.23-6.95 180.18-4.45Q180.13-4 180.13-3.2L180.13-3.2Q180.78-3.15 182.03-3.15L182.03-3.15Q183.08-3.1 185.28-3.1L185.28-3.1 187.98-3.05Q188.83-3 190.58-3L190.58-3Q191.63-3 193.33-3.1L193.33-3.1 195.43-3.15Q196.63-3.15 197.43-3.1 198.23-3.05 198.63-3.05L198.63-3.05Q199.03-3.05 199.11-2.9 199.18-2.75 199.18-2.25L199.18-2.25Q199.18-1.9 199.13-1.53 199.08-1.15 199.08-0.7L199.08-0.7Q199.08-0.35 198.83-0.23 198.58-0.1 198.03-0.1L198.03-0.1Q197.48-0.1 197.13-0.15L197.13-0.15Q195.78-0.3 191.68-0.3L191.68-0.3Q189.18-0.3 188.08-0.25L188.08-0.25Q187.23-0.2 185.28-0.2L185.28-0.2 180.63-0.25Q179.83-0.3 178.73-0.3L178.73-0.3Q178.03-0.3 177.81-0.48 177.58-0.65 177.58-1.05L177.58-1.05 177.63-1.85Q177.68-2.05 177.68-2.3L177.68-2.3Q177.68-2.45 177.63-3.03 177.58-3.6 177.58-5.15L177.58-5.15Q177.58-6.65 177.48-10.05L177.48-10.05Q177.33-12.85 177.33-15.45L177.33-15.45Q177.33-16.55 177.58-21.8L177.58-21.8Q177.63-22.85 177.68-23.9 177.73-24.95 177.73-25.8L177.73-25.8Q177.73-31.6 177.58-33.45L177.58-33.45Q177.43-34.65 179.03-34.65L179.03-34.65Q179.43-34.65 180.33-34.55L180.33-34.55Q181.13-34.45 181.53-34.45L181.53-34.45 184.68-34.55Q188.08-34.75 189.93-34.75L189.93-34.75Q192.08-34.75 195.98-34.65L195.98-34.65Q197.23-34.6 198.63-34.6L198.63-34.6Q199.23-34.6 199.38-34.3 199.53-34 199.51-33.68 199.48-33.35 199.48-33.25L199.48-33.25ZM226.68-2.05Q228.03-0.7 228.03-0.2L228.03-0.2Q228.03-0.1 227.78 0.15L227.78 0.15Q227.33 0.45 225.53 0.45L225.53 0.45Q224.23 0.45 223.88 0.28 223.53 0.1 223.36-0.3 223.18-0.7 223.08-0.9L223.08-0.9Q222.93-1.2 221.86-2.63 220.78-4.05 220.23-4.8L220.23-4.8Q217.58-8.2 215.63-10.95L215.63-10.95Q214.43-12.65 211.18-16.8L211.18-16.8 210.38-17.8 206.93-22.1 206.73-20.1Q206.53-18.6 206.63-16.5L206.63-16.5Q206.78-15.1 206.83-9.25 206.88-3.4 206.88-0.7L206.88-0.7Q206.88 0.1 206.28 0.33 205.68 0.55 204.88 0.55L204.88 0.55Q204.53 0.55 204.43 0.25 204.33-0.05 204.31-0.4 204.28-0.75 204.28-0.85L204.28-0.85Q204.18-1.65 204.18-3.2L204.18-3.2Q204.18-4.2 204.23-4.7L204.23-4.7Q204.28-7.4 204.38-14.13 204.48-20.85 204.48-26.2L204.48-26.2Q204.48-31.95 204.33-32.9L204.33-32.9Q204.28-33.3 204.28-33.95L204.28-33.95Q204.28-34.7 204.51-34.9 204.73-35.1 205.18-35.1L205.18-35.1Q206.18-35.1 207.13-35.05L207.13-35.05 212.58-34.95Q215.58-34.95 218.83-33.9 222.08-32.85 222.08-30L222.08-30Q222.08-27.3 220.08-25.8 218.08-24.3 215.61-23.75 213.13-23.2 211.28-23.2L211.28-23.2Q210.63-23.2 210.58-23.25L210.58-23.25Q210.88-22.95 214.53-17.95L214.53-17.95Q225.53-3.2 226.68-2.05L226.68-2.05ZM206.78-25.25Q208.43-25.25 209.28-25.3L209.28-25.3Q212.18-25.4 213.78-25.7L213.78-25.7Q216.08-26.1 217.26-26.8 218.43-27.5 218.43-29L218.43-29Q218.43-30 217.38-30.73 216.33-31.45 214.86-31.83 213.38-32.2 212.28-32.2L212.28-32.2Q211.03-32.25 208.78-32.25L208.78-32.25 207.08-32.25 206.78-25.25ZM253.08-33.25L253.08-32.7Q253.08-31.55 252.88-31.55L252.88-31.55Q252.58-31.55 252.2-31.63 251.83-31.7 251.28-31.7L251.28-31.7 243.28-31.7 237.08-31.75Q236.78-31.75 234.83-31.6L234.83-31.6 233.68-31.5 233.58-30.15Q233.53-29.4 233.53-27.8L233.53-27.8Q233.53-27 233.63-25.7L233.63-25.7Q233.73-24.5 233.73-23.95L233.73-23.95 233.73-21.95Q233.73-21.15 233.78-20.7L233.78-20.7Q234.23-20.65 235.13-20.65L235.13-20.65 237.13-20.65Q237.43-20.65 238.33-20.75L238.33-20.75Q239.63-20.85 240.58-20.85L240.58-20.85Q240.98-20.85 243.38-20.7L243.38-20.7 244.48-20.65Q244.88-20.65 245.63-20.73 246.38-20.8 247.08-20.8L247.08-20.8 248.73-20.75Q250.03-20.65 250.53-20.65L250.53-20.65Q251.08-20.65 251.28-20.7L251.28-20.7 251.58-20.75Q251.93-20.75 252.08-20.53 252.23-20.3 252.18-20.1L252.18-20.1Q252.13-19.75 252.13-19.23 252.13-18.7 252.08-18.3L252.08-18.3Q252.03-17.9 251.93-17.82 251.83-17.75 251.33-17.75L251.33-17.75 249.33-17.95Q245.58-18.3 244.43-18.3L244.43-18.3Q240.18-18.3 238.18-18.15L238.18-18.15Q237.38-18.05 236.43-18.05 235.48-18.05 235.23-18.05L235.23-18.05Q234.28-18.05 233.83-18.1L233.83-18.1 233.68-17.3Q233.58-16.4 233.58-15.7L233.58-15.7Q233.58-15.1 233.68-14.3L233.68-14.3Q233.78-13.5 233.78-12.9L233.78-12.9 233.83-6.95 233.78-4.45Q233.73-4 233.73-3.2L233.73-3.2Q234.38-3.15 235.63-3.15L235.63-3.15Q236.68-3.1 238.88-3.1L238.88-3.1 241.58-3.05Q242.43-3 244.18-3L244.18-3Q245.23-3 246.93-3.1L246.93-3.1 249.03-3.15Q250.23-3.15 251.03-3.1 251.83-3.05 252.23-3.05L252.23-3.05Q252.63-3.05 252.7-2.9 252.78-2.75 252.78-2.25L252.78-2.25Q252.78-1.9 252.73-1.53 252.68-1.15 252.68-0.7L252.68-0.7Q252.68-0.35 252.43-0.23 252.18-0.1 251.63-0.1L251.63-0.1Q251.08-0.1 250.73-0.15L250.73-0.15Q249.38-0.3 245.28-0.3L245.28-0.3Q242.78-0.3 241.68-0.25L241.68-0.25Q240.83-0.2 238.88-0.2L238.88-0.2 234.23-0.25Q233.43-0.3 232.33-0.3L232.33-0.3Q231.63-0.3 231.4-0.48 231.18-0.65 231.18-1.05L231.18-1.05 231.23-1.85Q231.28-2.05 231.28-2.3L231.28-2.3Q231.28-2.45 231.23-3.03 231.18-3.6 231.18-5.15L231.18-5.15Q231.18-6.65 231.08-10.05L231.08-10.05Q230.93-12.85 230.93-15.45L230.93-15.45Q230.93-16.55 231.18-21.8L231.18-21.8Q231.23-22.85 231.28-23.9 231.33-24.95 231.33-25.8L231.33-25.8Q231.33-31.6 231.18-33.45L231.18-33.45Q231.03-34.65 232.63-34.65L232.63-34.65Q233.03-34.65 233.93-34.55L233.93-34.55Q234.73-34.45 235.13-34.45L235.13-34.45 238.28-34.55Q241.68-34.75 243.53-34.75L243.53-34.75Q245.68-34.75 249.58-34.65L249.58-34.65Q250.83-34.6 252.23-34.6L252.23-34.6Q252.83-34.6 252.98-34.3 253.13-34 253.1-33.68 253.08-33.35 253.08-33.25L253.08-33.25ZM275.92-33.4L277.17-29.25Q278.22-25.95 279.62-22.75L279.62-22.75Q280.27-21.25 281.02-18.95L281.02-18.95Q281.82-16.55 281.82-16.55L281.82-16.55 282.22-17.8 282.97-19.95Q283.47-21.45 284.45-24.03 285.42-26.6 285.77-27.3L285.77-27.3Q287.17-31.35 287.57-33.05L287.57-33.05Q287.82-34.05 288.22-34.3 288.62-34.55 289-34.52 289.37-34.5 289.47-34.5L289.47-34.5 292.17-34.55Q293.42-34.55 294.32-34.45L294.32-34.45Q295.37-34.3 295.37-33.95L295.37-33.95Q295.37-33.9 295.27-33.5L295.27-33.5Q295.17-33.25 295.05-32.88 294.92-32.5 294.77-32.05L294.77-32.05Q293.57-28.5 293.22-27.7L293.22-27.7Q292.57-25.8 291.02-22L291.02-22 288.92-16.5Q287.82-13.8 286.12-9.5 284.42-5.2 284.27-4.6L284.27-4.6Q284.07-4 283.85-2.68 283.62-1.35 283.52-0.95L283.52-0.95Q283.37-0.35 283.2-0.13 283.02 0.1 282.72 0.05L282.72 0.05 279.77 0.1 275.82 0.15Q275.17 0.15 275.17-0.15L275.17-0.15Q275.17-0.3 275.25-0.43 275.32-0.55 275.37-0.7L275.37-0.7 277.17-5.55Q277.32-6.35 277.92-7.7L277.92-7.7Q278.07-8.1 278.22-8.47 278.37-8.85 278.47-9.25L278.47-9.25Q278.57-9.55 278.77-9.95 278.97-10.35 279.02-10.63 279.07-10.9 278.97-11.15L278.97-11.15Q278.97-11.15 278.42-12.7L278.42-12.7Q277.72-14.9 277.47-15.5L277.47-15.5Q277.17-16.25 276.67-17.95L276.67-17.95Q276.32-19.1 276.02-20L276.02-20Q275.62-21 274.22-25.05 272.82-29.1 272.17-31.2L272.17-31.2Q271.87-32.1 271.57-32.75L271.57-32.75Q271.22-33.55 271.22-33.85L271.22-33.85Q271.22-34.2 271.6-34.33 271.97-34.45 272.72-34.5L272.72-34.5Q273.47-34.55 275.22-34.45L275.22-34.45Q275.62-34.4 275.72-34.25 275.82-34.1 275.82-33.88 275.82-33.65 275.92-33.4L275.92-33.4ZM317.82-34.9Q320.82-32.9 322.65-29.5 324.47-26.1 325.2-22.88 325.92-19.65 325.92-17.8L325.92-17.8Q325.92-14.7 324.95-10.6 323.97-6.5 320.77-2.98 317.57 0.55 311.52 0.55L311.52 0.55Q303.22 0.55 299.72-9.1L299.72-9.1Q298.17-13.45 297.97-18.8L297.97-18.8Q297.97-23.2 299.82-27.18 301.67-31.15 304.7-33.55 307.72-35.95 310.92-35.95L310.92-35.95Q313.82-35.95 315.25-35.8 316.67-35.65 317.82-34.9L317.82-34.9ZM311.27-2.25Q316.57-2.25 319.17-6.68 321.77-11.1 321.77-17.8L321.77-17.8Q321.77-21.9 320.55-25.38 319.32-28.85 317.1-30.93 314.87-33 311.97-33L311.97-33Q311.72-33 310.65-33 309.57-33 308.77-32.65 307.97-32.3 307.32-31.6L307.32-31.6Q305.67-29.95 304.55-28.58 303.42-27.2 302.3-24.5 301.17-21.8 301.17-18.25L301.17-18.25Q301.17-14.05 302.2-10.43 303.22-6.8 305.47-4.53 307.72-2.25 311.27-2.25L311.27-2.25ZM340.77-34.9L340.77-14.9Q340.77-13.8 340.89-13 341.02-12.2 341.64-11.48 342.27-10.75 343.67-10.75L343.67-10.75Q345.62-10.75 346.32-12.23 347.02-13.7 347.02-15.45L347.02-15.45 347.07-17.95Q347.22-23.5 347.22-24.15L347.22-24.15Q347.22-25.55 347.17-26.05L347.17-26.05Q347.17-27.8 346.97-31.4L346.97-31.4 346.87-34.15Q346.87-35.05 347.12-35.4 347.37-35.75 348.07-35.75L348.07-35.75 354.42-35.75 355.17-35.8Q355.67-35.8 355.99-35.5 356.32-35.2 356.42-34.3L356.42-34.3Q356.52-33.45 356.52-28.4L356.52-28.4 356.47-17.65Q356.47-14.85 355.57-10.93 354.67-7 351.82-3.65 348.97-0.3 343.67-0.3L343.67-0.3Q331.77-0.3 330.87-11.7L330.87-11.7Q330.82-12.2 330.82-13.7L330.82-13.7Q330.82-15.25 330.92-19.15L330.92-19.15Q331.07-23.65 331.02-25.85L331.02-25.85Q331.02-28.85 330.92-32.15L330.92-32.15Q330.87-33.1 330.87-34.1L330.87-34.1Q330.87-34.3 330.84-34.85 330.82-35.4 331.04-35.65 331.27-35.9 331.87-35.9L331.87-35.9 334.77-35.85Q335.77-35.85 336.22-35.9L336.22-35.9Q337.32-36 338.02-36L338.02-36 340.02-35.95Q340.47-35.95 340.59-35.73 340.72-35.5 340.77-34.9L340.77-34.9ZM384.87-2.05Q386.22-0.7 386.22-0.2L386.22-0.2Q386.22-0.1 385.97 0.15L385.97 0.15Q385.52 0.45 383.72 0.45L383.72 0.45Q382.42 0.45 382.07 0.28 381.72 0.1 381.54-0.3 381.37-0.7 381.27-0.9L381.27-0.9Q381.12-1.2 380.04-2.63 378.97-4.05 378.42-4.8L378.42-4.8Q375.77-8.2 373.82-10.95L373.82-10.95Q372.62-12.65 369.37-16.8L369.37-16.8 368.57-17.8 365.12-22.1 364.92-20.1Q364.72-18.6 364.82-16.5L364.82-16.5Q364.97-15.1 365.02-9.25 365.07-3.4 365.07-0.7L365.07-0.7Q365.07 0.1 364.47 0.33 363.87 0.55 363.07 0.55L363.07 0.55Q362.72 0.55 362.62 0.25 362.52-0.05 362.49-0.4 362.47-0.75 362.47-0.85L362.47-0.85Q362.37-1.65 362.37-3.2L362.37-3.2Q362.37-4.2 362.42-4.7L362.42-4.7Q362.47-7.4 362.57-14.13 362.67-20.85 362.67-26.2L362.67-26.2Q362.67-31.95 362.52-32.9L362.52-32.9Q362.47-33.3 362.47-33.95L362.47-33.95Q362.47-34.7 362.69-34.9 362.92-35.1 363.37-35.1L363.37-35.1Q364.37-35.1 365.32-35.05L365.32-35.05 370.77-34.95Q373.77-34.95 377.02-33.9 380.27-32.85 380.27-30L380.27-30Q380.27-27.3 378.27-25.8 376.27-24.3 373.79-23.75 371.32-23.2 369.47-23.2L369.47-23.2Q368.82-23.2 368.77-23.25L368.77-23.25Q369.07-22.95 372.72-17.95L372.72-17.95Q383.72-3.2 384.87-2.05L384.87-2.05ZM364.97-25.25Q366.62-25.25 367.47-25.3L367.47-25.3Q370.37-25.4 371.97-25.7L371.97-25.7Q374.27-26.1 375.44-26.8 376.62-27.5 376.62-29L376.62-29Q376.62-30 375.57-30.73 374.52-31.45 373.04-31.83 371.57-32.2 370.47-32.2L370.47-32.2Q369.22-32.25 366.97-32.25L366.97-32.25 365.27-32.25 364.97-25.25ZM428.31-33.9Q428.31-33.65 428.24-32.6 428.16-31.55 428.16-30L428.16-30Q428.16-28.6 428.31-26.2L428.31-26.2Q428.31-24.85 426.56-24.85L426.56-24.85 417.76-24.85 417.66-19.7Q417.61-18.85 417.61-15.45L417.61-15.45Q417.61-11.95 417.66-8.65 417.71-5.35 417.71-2.95L417.71-2.95 417.76-0.9 417.76-0.65Q417.76-0.2 417.64-0.1 417.51 0 417.31 0 417.11 0 417.01 0L417.01 0 413.61 0Q413.01 0 412.91-0.2 412.81-0.4 412.81-0.93 412.81-1.45 412.81-1.7L412.81-1.7 413.01-7.9Q413.31-16 413.31-18.3L413.31-18.3Q413.31-19.6 413.21-22.2L413.21-22.2 413.16-24.85Q409.56-24.85 405.86-24.75L405.86-24.75 404.31-24.7Q403.66-24.7 403.41-25.05 403.16-25.4 403.31-25.85L403.31-25.85 403.36-27.1Q403.46-30 403.46-32.45L403.46-32.45Q403.46-33.65 403.41-33.9L403.41-33.9 403.41-34.25Q403.41-34.8 403.64-34.9 403.86-35 404.31-35L404.31-35 409.26-35 412.06-35.05Q414.66-35.15 415.71-35.15L415.71-35.15 418.71-35.1Q422.31-35 424.36-35L424.36-35Q425.86-35 426.31-35.05L426.31-35.05Q427.41-35.1 427.86-34.73 428.31-34.35 428.31-33.9L428.31-33.9ZM453.36-33.25L453.36-32.7Q453.36-31.55 453.16-31.55L453.16-31.55Q452.86-31.55 452.48-31.63 452.11-31.7 451.56-31.7L451.56-31.7 443.56-31.7 437.36-31.75Q437.06-31.75 435.11-31.6L435.11-31.6 433.96-31.5 433.86-30.15Q433.81-29.4 433.81-27.8L433.81-27.8Q433.81-27 433.91-25.7L433.91-25.7Q434.01-24.5 434.01-23.95L434.01-23.95 434.01-21.95Q434.01-21.15 434.06-20.7L434.06-20.7Q434.51-20.65 435.41-20.65L435.41-20.65 437.41-20.65Q437.71-20.65 438.61-20.75L438.61-20.75Q439.91-20.85 440.86-20.85L440.86-20.85Q441.26-20.85 443.66-20.7L443.66-20.7 444.76-20.65Q445.16-20.65 445.91-20.73 446.66-20.8 447.36-20.8L447.36-20.8 449.01-20.75Q450.31-20.65 450.81-20.65L450.81-20.65Q451.36-20.65 451.56-20.7L451.56-20.7 451.86-20.75Q452.21-20.75 452.36-20.53 452.51-20.3 452.46-20.1L452.46-20.1Q452.41-19.75 452.41-19.23 452.41-18.7 452.36-18.3L452.36-18.3Q452.31-17.9 452.21-17.82 452.11-17.75 451.61-17.75L451.61-17.75 449.61-17.95Q445.86-18.3 444.71-18.3L444.71-18.3Q440.46-18.3 438.46-18.15L438.46-18.15Q437.66-18.05 436.71-18.05 435.76-18.05 435.51-18.05L435.51-18.05Q434.56-18.05 434.11-18.1L434.11-18.1 433.96-17.3Q433.86-16.4 433.86-15.7L433.86-15.7Q433.86-15.1 433.96-14.3L433.96-14.3Q434.06-13.5 434.06-12.9L434.06-12.9 434.11-6.95 434.06-4.45Q434.01-4 434.01-3.2L434.01-3.2Q434.66-3.15 435.91-3.15L435.91-3.15Q436.96-3.1 439.16-3.1L439.16-3.1 441.86-3.05Q442.71-3 444.46-3L444.46-3Q445.51-3 447.21-3.1L447.21-3.1 449.31-3.15Q450.51-3.15 451.31-3.1 452.11-3.05 452.51-3.05L452.51-3.05Q452.91-3.05 452.98-2.9 453.06-2.75 453.06-2.25L453.06-2.25Q453.06-1.9 453.01-1.53 452.96-1.15 452.96-0.7L452.96-0.7Q452.96-0.35 452.71-0.23 452.46-0.1 451.91-0.1L451.91-0.1Q451.36-0.1 451.01-0.15L451.01-0.15Q449.66-0.3 445.56-0.3L445.56-0.3Q443.06-0.3 441.96-0.25L441.96-0.25Q441.11-0.2 439.16-0.2L439.16-0.2 434.51-0.25Q433.71-0.3 432.61-0.3L432.61-0.3Q431.91-0.3 431.68-0.48 431.46-0.65 431.46-1.05L431.46-1.05 431.51-1.85Q431.56-2.05 431.56-2.3L431.56-2.3Q431.56-2.45 431.51-3.03 431.46-3.6 431.46-5.15L431.46-5.15Q431.46-6.65 431.36-10.05L431.36-10.05Q431.21-12.85 431.21-15.45L431.21-15.45Q431.21-16.55 431.46-21.8L431.46-21.8Q431.51-22.85 431.56-23.9 431.61-24.95 431.61-25.8L431.61-25.8Q431.61-31.6 431.46-33.45L431.46-33.45Q431.31-34.65 432.91-34.65L432.91-34.65Q433.31-34.65 434.21-34.55L434.21-34.55Q435.01-34.45 435.41-34.45L435.41-34.45 438.56-34.55Q441.96-34.75 443.81-34.75L443.81-34.75Q445.96-34.75 449.86-34.65L449.86-34.65Q451.11-34.6 452.51-34.6L452.51-34.6Q453.11-34.6 453.26-34.3 453.41-34 453.38-33.68 453.36-33.35 453.36-33.25L453.36-33.25ZM469.41-36Q473.51-36 475.61-34.52 477.71-33.05 478.53-31.83 479.36-30.6 479.56-30.3L479.56-30.3Q480.06-29.65 480.06-29.3L480.06-29.3Q480.06-29 479.86-28.8 479.66-28.6 479.36-28.45 479.06-28.3 478.96-28.2L478.96-28.2Q478.36-27.8 477.36-26.95L477.36-26.95Q476.91-26.6 476.03-25.93 475.16-25.25 474.86-25.1L474.86-25.1Q474.66-24.95 474.46-24.95L474.46-24.95Q474.11-24.95 473.81-25.35 473.51-25.75 473.41-25.9L473.41-25.9Q473.31-26.05 472.88-26.55 472.46-27.05 471.81-27.4 471.16-27.75 470.36-27.75L470.36-27.75Q468.86-27.75 468.01-25.8 467.16-23.85 467.16-18.85L467.16-18.85Q467.16-15.55 467.71-13.45 468.26-11.35 469.03-10.43 469.81-9.5 470.51-9.5L470.51-9.5Q471.51-9.5 472.03-9.95 472.56-10.4 472.96-11.65L472.96-11.65Q473.36-12.85 474.26-12.85L474.26-12.85Q474.56-12.85 474.93-12.75 475.31-12.65 475.51-12.6L475.51-12.6Q476.01-12.4 477.96-11.98 479.91-11.55 481.31-11.3L481.31-11.3Q482.01-11.15 482.01-10.1L482.01-10.1Q482.01-9.6 481.96-9.35L481.96-9.35Q481.91-8.7 481.56-7.6L481.56-7.6Q480.51-4.4 477.98-1.83 475.46 0.75 470.46 0.75L470.46 0.75Q467.41 0.75 464.31-1.1 461.21-2.95 459.06-7.28 456.91-11.6 456.91-18.65L456.91-18.65Q456.91-28.65 460.76-32.33 464.61-36 469.41-36L469.41-36ZM496.1-21.5L498.25-21.45Q499.3-21.45 500.2-21.55L500.2-21.55Q500.5-21.6 501.15-21.6L501.15-21.6Q501.85-21.6 502.2-21.55L502.2-21.55 503.35-21.45 503.5-22.95 503.65-25.35 503.75-30.25 503.85-34.1Q503.9-34.85 504.05-35.1 504.2-35.35 504.75-35.4L504.75-35.4Q505.25-35.4 507.55-35.7L507.55-35.7Q507.95-35.75 509-35.75L509-35.75Q510.6-35.75 511.65-35.6L511.65-35.6Q512.2-35.5 512.33-35.38 512.45-35.25 512.48-34.95 512.5-34.65 512.55-34.4L512.55-34.4Q512.55-33.6 512.4-31.7L512.4-31.7Q512.2-28.2 512.2-26.9L512.2-26.9Q512.2-26.25 511.9-22.75L511.9-22.75Q511.6-18.95 511.6-17.8L511.6-17.8 511.7-7.9Q511.7-2.3 511.9-1.05L511.9-1.05 511.9-0.95Q511.9-0.4 511.7-0.28 511.5-0.15 511.25-0.18 511-0.2 510.9-0.2L510.9-0.2Q510.5-0.3 509.9-0.3L509.9-0.3Q509.7-0.3 508.6-0.2L508.6-0.2Q507.2-0.05 504.1-0.05L504.1-0.05 504-0.05Q503.3-0.05 503.3-0.5L503.3-0.5Q503.3-1.45 503.28-4.25 503.25-7.05 503.1-8.35L503.1-8.35Q503-10.25 503-12.05L503-12.05Q502.95-12.8 502.95-14.35L502.95-14.35 501.5-14.35 499.35-14.3 498.45-14.25 497.45-14.3Q496.7-14.3 496.25-14.35L496.25-14.35 496.1-11.2Q495.95-9.45 495.95-6.65L495.95-6.65 495.95-4.1Q495.95-1.4 496.05-0.85L496.05-0.85Q496.15-0.25 495.88-0.13 495.6 0 495.23 0 494.85 0 494.7 0L494.7 0Q494.3-0.05 493.35-0.13 492.4-0.2 491.8-0.2L491.8-0.2 490.35-0.1Q490-0.05 487.75 0.1L487.75 0.1Q486.6 0.25 486.6-1.3L486.6-1.3 486.65-3.25 486.75-6.85Q486.75-7.95 486.8-8.9L486.8-8.9 486.85-14.7Q486.85-16.7 486.8-17.25L486.8-17.25Q486.65-18.4 486.65-20.25L486.65-20.25 486.7-23.3Q486.75-24.05 486.75-25.25L486.75-25.25Q486.75-26.65 487.05-31.05L487.05-31.05 487.2-34.5Q487.2-34.9 487.35-35.05 487.5-35.2 487.8-35.2L487.8-35.2 488.45-35.15Q489.1-35.05 490.15-35 491.2-34.95 492.2-34.95L492.2-34.95 494.5-35Q495.05-35.05 495.75-35.05L495.75-35.05 495.8-35.05Q496.2-35.05 496.2-34.5L496.2-34.5Q496.25-34.4 496.28-32.52 496.3-30.65 496.3-28.1L496.3-28.1Q496.3-26.5 496.2-23.8L496.2-23.8 496.1-21.5ZM530.5-17.4Q533.4-16.35 536.48-13.88 539.55-11.4 539.55-6.5L539.55-6.5Q539.55-3.3 537.28-1.83 535-0.35 532.68-0.08 530.35 0.2 527.8 0.2L527.8 0.2 522.95 0.3 519.9 0.35Q519.1 0.35 518.8-0.15 518.5-0.65 518.5-1.55L518.5-1.55 518.55-12.65 518.55-15.05Q518.55-16.95 518.7-18.5L518.7-18.5 518.85-24.6Q518.85-25.65 518.9-27.73 518.95-29.8 519-30.35L519-30.35Q519.05-30.75 519.05-31.75L519.05-31.75Q519.05-33.5 518.9-34.25L518.9-34.25Q518.85-34.35 518.85-34.5L518.85-34.5Q518.85-34.8 519.4-34.95L519.4-34.95Q519.9-35.1 522.05-35.38 524.2-35.65 525.95-35.65L525.95-35.65Q530.7-35.65 533.48-33.75 536.25-31.85 536.25-26.55L536.25-26.55Q536.25-21.75 533.35-19.05L533.35-19.05Q532.05-17.95 530.5-17.4L530.5-17.4ZM525.05-19.95Q525.05-19.45 525-19.07 524.95-18.7 524.95-18.5L524.95-18.5Q524.95-18.2 525-18.13 525.05-18.05 525.3-18.05L525.3-18.05Q526.3-18.05 528.4-18.6 530.5-19.15 532.45-20.95 534.4-22.75 534.4-26.15L534.4-26.15Q534.4-29.75 533.15-31.5 531.9-33.25 530.03-33.73 528.15-34.2 525.25-34.2L525.25-34.2 525.15-31Q525.05-27.4 525.05-25.65L525.05-25.65 525.05-19.95ZM526.6-0.75Q531.5-0.75 533.95-2.33 536.4-3.9 536.4-6.55L536.4-6.55Q536.4-13.25 530.65-15.65L530.65-15.65Q528.1-16.6 524.9-16.55L524.9-16.55Q524.85-16.4 524.85-16.15L524.85-16.15Q524.8-15.9 524.8-15L524.8-15 524.9-11.8 525-9.1Q525-8.4 524.95-8.1L524.95-8.1 524.9-6.8 525-3.85 525.1-1.55Q525.1-0.95 525.33-0.83 525.55-0.7 525.98-0.73 526.4-0.75 526.6-0.75L526.6-0.75ZM548.5-34.6L548.4-31.7Q548.15-24.7 548.15-24.1L548.15-24.1 548.1-16.95Q548.1-16 548.15-15.3L548.15-15.3 548.2-12.3Q548.2-11.25 548.15-11L548.15-11Q548.1-10.7 548.12-10.45 548.15-10.2 548.15-10.1L548.15-10.1Q548.15-9.9 548.2-9.85L548.2-9.85 549.4-9.75Q551-9.65 552.05-9.7L552.05-9.7 561.3-9.8Q561.3-9.8 566.55-9.65L566.55-9.65 568.9-9.6Q569.45-9.55 569.45-9.3L569.45-9.3Q569.45-9.2 569.4-9.05 569.35-8.9 569.35-8.75L569.35-8.75 569.35-6.45Q569.35-5.55 569.65-2.65L569.65-2.65 569.85-0.55 569.9-0.3Q569.9-0.05 569.65 0.03 569.4 0.1 568.75 0.1L568.75 0.1 565.1 0.05 558.9-0.05Q557.65-0.05 555.4 0.1L555.4 0.1Q554.4 0.15 553.17 0.2 551.95 0.25 550.75 0.25L550.75 0.25 549.9 0.2Q549.6 0.15 548.75 0.15L548.75 0.15 546.5 0.2Q545.9 0.25 544.95 0.25L544.95 0.25Q544.3 0.25 544.17 0.08 544.05-0.1 544.07-0.45 544.1-0.8 544.1-1.05L544.1-1.05Q544.1-2.15 544.25-4.85L544.25-4.85 544.4-10 544.3-12.35Q544.25-13.05 544.2-14.03 544.15-15 544.15-16.05L544.15-16.05Q544.15-14.35 544.45-19.48 544.75-24.6 544.75-25.8L544.75-25.8 544.7-31.45 544.6-34.65 544.6-34.7Q544.6-35.1 545.15-35.1L545.15-35.1 545.85-35.05Q546.1-35.05 546.5-35.02 546.9-35 547.75-35L547.75-35 548.2-35Q548.5-35 548.5-34.6L548.5-34.6ZM591.8-34.9Q594.8-32.9 596.62-29.5 598.45-26.1 599.17-22.88 599.9-19.65 599.9-17.8L599.9-17.8Q599.9-14.7 598.92-10.6 597.95-6.5 594.75-2.98 591.55 0.55 585.5 0.55L585.5 0.55Q577.2 0.55 573.7-9.1L573.7-9.1Q572.15-13.45 571.95-18.8L571.95-18.8Q571.95-23.2 573.8-27.18 575.65-31.15 578.67-33.55 581.7-35.95 584.9-35.95L584.9-35.95Q587.8-35.95 589.22-35.8 590.65-35.65 591.8-34.9L591.8-34.9ZM585.25-2.25Q590.55-2.25 593.15-6.68 595.75-11.1 595.75-17.8L595.75-17.8Q595.75-21.9 594.52-25.38 593.3-28.85 591.07-30.93 588.85-33 585.95-33L585.95-33Q585.7-33 584.62-33 583.55-33 582.75-32.65 581.95-32.3 581.3-31.6L581.3-31.6Q579.65-29.95 578.52-28.58 577.4-27.2 576.27-24.5 575.15-21.8 575.15-18.25L575.15-18.25Q575.15-14.05 576.17-10.43 577.2-6.8 579.45-4.53 581.7-2.25 585.25-2.25L585.25-2.25ZM615.59-35.4Q618.99-35.4 620.77-34.25 622.54-33.1 623.24-32.13 623.94-31.15 624.14-30.95L624.14-30.95Q624.54-30.5 624.54-30L624.54-30Q624.54-29.4 624.09-28.95L624.09-28.95Q623.64-28.5 622.97-27.95 622.29-27.4 621.74-27L621.74-27Q621.49-26.85 621.29-26.85L621.29-26.85Q620.84-26.85 620.39-27.3L620.39-27.3Q620.29-27.4 618.94-28.98 617.59-30.55 614.89-30.55L614.89-30.55Q612.84-30.55 611.34-28.38 609.84-26.2 609.07-23.13 608.29-20.05 608.29-17.4L608.29-17.4Q608.29-14.65 609.09-11.55 609.89-8.45 611.67-6.25 613.44-4.05 616.14-4.05L616.14-4.05Q619.74-4.05 621.64-6.85L621.64-6.85Q622.44-8.15 622.69-9.7L622.69-9.7 621.24-9.7 618.99-9.75 613.94-9.8Q613.09-9.8 613.09-10.6L613.09-10.6 613.09-12.55Q613.09-13.05 613.24-13.18 613.39-13.3 613.64-13.3L613.64-13.3 615.94-13.3 626.19-13.55Q626.64-13.55 626.87-13.1 627.09-12.65 627.04-11.9L627.04-11.9Q627.04-10.15 626.39-7.38 625.74-4.6 623.19-1.98 620.64 0.65 615.59 0.65L615.59 0.65Q611.84 0.65 609.17-2.2 606.49-5.05 605.17-9.53 603.84-14 603.84-18.7L603.84-18.7Q603.84-23.1 605.47-26.95 607.09-30.8 609.82-33.1 612.54-35.4 615.59-35.4L615.59-35.4ZM642.29-35.25Q646.64-35.25 648.74-33.55 650.84-31.85 650.94-31.75L650.94-31.75Q651.44-31.4 651.44-31.05L651.44-31.05Q651.44-30.85 651.24-30.65L651.24-30.65Q651.09-30.45 650.64-29.8 650.19-29.15 649.94-29.15L649.94-29.15Q649.69-29.15 649.29-29.4L649.29-29.4 648.94-29.7Q645.14-32.45 642.44-32.45L642.44-32.45Q638.99-32.45 637.21-30.88 635.44-29.3 635.44-26.9L635.44-26.9Q635.44-24.85 636.91-23.4 638.39-21.95 640.79-20.65L640.79-20.65Q641.49-20.35 642.24-20.1L642.24-20.1Q644.74-19.15 646.62-18.07 648.49-17 649.99-14.83 651.49-12.65 651.49-9.35L651.49-9.35Q651.49-3.7 647.64-1.63 643.79 0.45 639.04 0.45L639.04 0.45Q636.29 0.45 634.06-0.8 631.84-2.05 630.89-3L630.89-3Q630.39-3.45 630.64-3.9L630.64-3.9Q630.69-4 631.06-4.7 631.44-5.4 631.74-5.4L631.74-5.4 631.84-5.4Q631.99-5.4 632.12-5.33 632.24-5.25 632.41-5.05 632.59-4.85 632.84-4.6L632.84-4.6Q633.49-3.95 635.39-3.13 637.29-2.3 638.54-2.3L638.54-2.3Q641.19-2.3 643.59-3.43 645.99-4.55 645.99-8.2L645.99-8.2Q645.99-9.75 644.62-10.9 643.24-12.05 640.34-13.6L640.34-13.6 638.19-14.8Q634.69-16.8 632.71-19.1 630.74-21.4 630.74-25.15L630.74-25.15Q630.74-28.25 632.51-30.55 634.29-32.85 636.96-34.05 639.64-35.25 642.29-35.25L642.29-35.25ZM659.59-6.8Q663.39-6.8 663.39-2.35L663.39-2.35Q663.39-1.15 662.21-0.28 661.04 0.6 659.59 0.6L659.59 0.6Q658.09 0.6 657.04-0.43 655.99-1.45 655.99-3.4L655.99-3.4Q655.99-5.4 657.01-6.1 658.04-6.8 659.59-6.8L659.59-6.8ZM671.33-6.8Q675.13-6.8 675.13-2.35L675.13-2.35Q675.13-1.15 673.96-0.28 672.78 0.6 671.33 0.6L671.33 0.6Q669.83 0.6 668.78-0.43 667.73-1.45 667.73-3.4L667.73-3.4Q667.73-5.4 668.76-6.1 669.78-6.8 671.33-6.8L671.33-6.8ZM683.08-6.8Q686.88-6.8 686.88-2.35L686.88-2.35Q686.88-1.15 685.71-0.28 684.53 0.6 683.08 0.6L683.08 0.6Q681.58 0.6 680.53-0.43 679.48-1.45 679.48-3.4L679.48-3.4Q679.48-5.4 680.51-6.1 681.53-6.8 683.08-6.8L683.08-6.8ZM694.83-6.8Q698.63-6.8 698.63-2.35L698.63-2.35Q698.63-1.15 697.45-0.28 696.28 0.6 694.83 0.6L694.83 0.6Q693.33 0.6 692.28-0.43 691.23-1.45 691.23-3.4L691.23-3.4Q691.23-5.4 692.25-6.1 693.28-6.8 694.83-6.8L694.83-6.8Z" opacity="1" transform="matrix(1,0,0,1,0,0)" fill="#0063db" class="undefined-text-1" data-fill-palette-color="secondary" id="text-1"></path></svg></g></svg></g></svg></g></svg></g><g transform="matrix(1,0,0,1,133.07793647139079,0)"><svg viewBox="0 0 129.3641270572184 113.36412705721841" height="113.36412705721841" width="129.3641270572184"><g><svg xmlns="http://www.w3.org/2000/svg" xmlns:xlink="http://www.w3.org/1999/xlink" version="1.1" x="8" y="0" viewBox="5 5 90 90" enable-background="new 0 0 100 100" xml:space="preserve" height="113.36412705721841" width="113.36412705721841" class="icon-icon-0" data-fill-palette-color="accent" id="icon-0"><path fill="#d90000" d="M95 52c0-12.871-5.692-24.431-14.682-32.318C72.431 10.692 60.871 5 48 5 24.29 5 5 24.29 5 48c0 12.868 5.69 24.426 14.677 32.313C27.564 89.306 39.126 95 52 95c0.084 0 0.166-0.006 0.25-0.006S52.416 95 52.5 95C75.972 95 95 75.972 95 52.5c0-0.084-0.006-0.166-0.006-0.25S95 52.084 95 52zM21.828 73.371c-4.245-5.978-6.77-13.259-6.822-21.121 0.135-20.511 16.732-37.109 37.244-37.244 7.862 0.052 15.144 2.577 21.121 6.822C80.224 28.473 84.5 37.758 84.5 48c0 20.126-16.374 36.5-36.5 36.5C37.758 84.5 28.473 80.224 21.828 73.371zM6 48C6 24.841 24.841 6 48 6c9.858 0 18.926 3.422 26.1 9.13C67.637 11.242 60.076 9 52 9 28.29 9 9 28.29 9 52c0 8.074 2.241 15.633 6.127 22.095C9.421 66.923 6 57.856 6 48zM52 89c-10.08 0-19.227-4.055-25.905-10.615C32.269 82.854 39.838 85.5 48 85.5c20.678 0 37.5-16.822 37.5-37.5 0-8.162-2.646-15.731-7.115-21.905C84.945 32.773 89 41.92 89 52 89 72.402 72.402 89 52 89z" data-fill-palette-color="accent"></path></svg></g></svg></g><g><rect width="133.07793647139079" height="5.044771335616971" y="107.31935572160144" x="262.4420635286092" fill="#d90000" data-fill-palette-color="accent"></rect><rect width="133.07793647139079" height="5.044771335616971" y="107.31935572160144" x="0" fill="#d90000" data-fill-palette-color="accent"></rect><rect width="133.07793647139079" height="5.044771335616971" y="97.2298130503675" x="262.4420635286092" fill="#d90000" data-fill-palette-color="accent"></rect><rect width="133.07793647139079" height="5.044771335616971" y="97.2298130503675" x="0" fill="#d90000" data-fill-palette-color="accent"></rect></g></svg></g><defs></defs></svg><rect width="395.52" height="208.59937023934327" fill="none" stroke="none" visibility="hidden"></rect></g></svg></g></svg>